# xmcd
#
# Track frame offsets:
#	150
#	17996
#	35607
#	50066
#	63818
#	81789
#	96027
#	112801
#	127092
#	145623
#
# Disc length: 2194 seconds
#
# Revision: 0
# Processed by: cddbd v1.5.2PL0 Copyright (c) Steve Scherf et al.
# Submitted via: EasyCDDAExtractor 2010.6.0.0
#
DISCID=8108900a
DTITLE=Vesku Loiri and Rag Paananen - Merirosvokapteeni Ynjevi lavankopoksahdus
DYEAR=1974
DGENRE=Acid Jazz
TTITLE0=Kotoa lähtö
TTITLE1=Hirmunoita
TTITLE2=Myrsky
TTITLE3=Suklaamanner
TTITLE4=Sinappikäärmeiden sota
TTITLE5=Jättiläishyttynen
TTITLE6=Luurankosaari
TTITLE7=Naulakotkien valtakunta
TTITLE8=Sukelluskalavene
TTITLE9=Aarre
EXTD=
EXTT0=
EXTT1=
EXTT2=
EXTT3=
EXTT4=
EXTT5=
EXTT6=
EXTT7=
EXTT8=
EXTT9=
PLAYORDER=
